<svg width="196" height="80" viewBox="0 0 196 80" fill="none" xmlns="http://www.w3.org/2000/svg">
<path fill-rule="evenodd" clip-rule="evenodd" d="M9.158 63.9968V61.8895C9.1367 61.3364 9.26827 60.7882 9.53828 60.305C9.77803 59.8878 10.1366 59.5513 10.5682 59.3385C11.0264 59.1133 11.5312 58.9993 12.0417 59.0058C12.5912 58.9825 13.1373 59.1026 13.6262 59.3543C14.0516 59.5849 14.4031 59.9309 14.6403 60.3526C14.897 60.8397 15.0174 61.3871 14.9889 61.937V64.0444L9.158 63.9968ZM10.1404 62.8719H13.959V61.8895C13.9741 61.5591 13.8855 61.2322 13.7054 60.9547C13.5397 60.6976 13.3031 60.4939 13.0241 60.3684C12.7116 60.2464 12.3767 60.1924 12.0417 60.2099C11.5415 60.1891 11.051 60.3526 10.6633 60.6694C10.4867 60.8281 10.3481 61.0243 10.2576 61.2437C10.1671 61.4631 10.127 61.7001 10.1404 61.937V62.9194V62.8719ZM13.959 52.9689H14.9413V57.041H9.158V53.0323H10.1404V55.8526H11.5347V53.4126H12.4537V55.8526H14.0382V52.9689H13.959ZM10.6791 47.5342C10.5877 47.6359 10.508 47.7475 10.4414 47.8669C10.3472 48.0559 10.2678 48.2519 10.2038 48.4532C10.1411 48.664 10.1091 48.8828 10.1087 49.1028C10.0909 49.3407 10.1462 49.5784 10.2671 49.7841C10.3226 49.8616 10.3967 49.924 10.4825 49.9655C10.5683 50.007 10.6631 50.0264 10.7583 50.0218C10.8266 50.0112 10.8917 49.9859 10.9492 49.9476C11.0066 49.9093 11.055 49.8589 11.0911 49.8C11.1954 49.6874 11.2714 49.5516 11.3129 49.4039C11.3129 49.2296 11.4555 48.976 11.5506 48.6116C11.6372 48.2374 11.7703 47.8754 11.9467 47.5342C12.0601 47.2882 12.2347 47.0755 12.4537 46.9162C12.7075 46.7655 12.9984 46.6887 13.2935 46.6944C13.5432 46.6775 13.7931 46.7238 14.0202 46.8291C14.2473 46.9343 14.4442 47.0951 14.5927 47.2965C14.9007 47.7655 15.0506 48.3207 15.0205 48.881C15.0153 49.3166 14.9459 49.749 14.8146 50.1644C14.693 50.5822 14.5058 50.9779 14.26 51.3369L13.2935 50.8299C13.4114 50.7098 13.5078 50.5705 13.5787 50.4179C13.6969 50.1827 13.7975 49.9391 13.8797 49.6891C13.9604 49.4271 14.0031 49.155 14.0065 48.881C14.0161 48.6437 13.9614 48.4083 13.848 48.1996C13.8012 48.1248 13.7356 48.0636 13.6578 48.0219C13.58 47.9802 13.4926 47.9595 13.4044 47.962C13.3294 47.9589 13.2548 47.9729 13.1861 48.0031C13.1174 48.0334 13.0566 48.0789 13.0083 48.1363C12.9039 48.2693 12.8235 48.4194 12.7706 48.5799C12.7706 48.7542 12.6122 49.0553 12.5012 49.4514C12.3996 49.9113 12.1996 50.3437 11.915 50.719C11.7894 50.8508 11.6362 50.9533 11.4663 51.019C11.2965 51.0847 11.1143 51.1121 10.9326 51.0992C10.5837 51.1066 10.241 51.007 9.95024 50.814C9.66907 50.6322 9.45274 50.3659 9.33229 50.0535C9.18264 49.7198 9.10697 49.3576 9.11047 48.9919C9.10905 48.6191 9.17341 48.249 9.3006 47.8986C9.41178 47.568 9.56629 47.2537 9.7601 46.9638L10.6791 47.455V47.5342ZM14.9413 44.8089H9.158V43.6839H14.9413V44.8089ZM11.9784 36.2844H14.9413V37.2193H14.26C14.4765 37.4231 14.6498 37.6685 14.7695 37.9407C14.8893 38.2129 14.9531 38.5064 14.9572 38.8037C14.9627 39.297 14.8251 39.7814 14.5611 40.1981C14.2969 40.6149 13.9317 40.9582 13.4995 41.1963C13.0344 41.4373 12.518 41.5624 11.9942 41.5607C11.4954 41.5639 11.0043 41.4384 10.5682 41.1963C10.1314 40.9573 9.76532 40.6076 9.50659 40.1822C9.24704 39.7519 9.11007 39.2588 9.11047 38.7562C9.11804 38.2647 9.25464 37.7839 9.50659 37.3619C9.70795 36.9819 10.0093 36.6641 10.378 36.4429L10.996 37.2826C10.7245 37.4218 10.4989 37.6364 10.3464 37.9006C10.1872 38.1573 10.1047 38.4542 10.1087 38.7562C10.103 39.0631 10.1975 39.3635 10.378 39.6118C10.5587 39.8678 10.805 40.0703 11.0911 40.1981C11.3929 40.3407 11.7238 40.4112 12.0576 40.404C12.3983 40.4119 12.7357 40.3357 13.04 40.1822C13.3183 40.0565 13.5587 39.8598 13.7371 39.6118C13.9102 39.3548 13.9989 39.0501 13.9906 38.7404C13.9919 38.4327 13.9208 38.129 13.7832 37.8538C13.6456 37.5785 13.4453 37.3395 13.1984 37.1559H12.8023V38.3125H11.9784V36.2844ZM11.2337 33.0204H14.9413V34.1454H9.158V33.2739L12.9766 30.2634H9.17385V29.1384H14.9413V30.105L11.2337 33.0204ZM13.959 22.7372H14.9413V26.7459H9.158V22.8006H10.1404V25.6209H11.5347V23.1967H12.4537V25.6209H14.0382V22.7372H13.959ZM9.20554 20.6774V18.1264C9.20266 17.788 9.30207 17.4566 9.49074 17.1757C9.66707 16.8961 9.91269 16.6669 10.2038 16.5102C10.477 16.3631 10.7808 16.2817 11.0911 16.2725C11.4493 16.2693 11.8011 16.3683 12.1051 16.5577C12.3985 16.7385 12.6304 17.0036 12.7706 17.3183L14.9413 16.0032V17.2391L13.0083 18.4274V19.5524H14.9413V20.6774H9.20554ZM12.0734 18.1422C12.0724 18.0384 12.0458 17.9364 11.9961 17.8452C11.9463 17.754 11.875 17.6765 11.7882 17.6193C11.5877 17.4711 11.339 17.4033 11.0911 17.4292C10.9206 17.4243 10.7517 17.4624 10.5999 17.5401C10.4623 17.5988 10.3462 17.6984 10.2671 17.8253C10.1902 17.9377 10.1463 18.0695 10.1404 18.2056V19.5682H12.0259L12.0734 18.1422Z" fill="#201B18"/>
<path fill-rule="evenodd" clip-rule="evenodd" d="M5.2131 63.9968H0.000188916V63.3789H5.2131V64.0444V63.9968ZM1.25192 59.2434H5.2131V59.8931H0.000188916V59.3385L4.05644 56.1695H0.000188916V55.4565H5.2131V56.0586L1.25192 59.2276V59.2434ZM0.618133 48.3264V50.101H5.2131V50.7031H0.618133V52.4936H0.000188916V48.3264H0.618133ZM4.62685 41.8459H5.2131V45.3634H0.000188916V41.9093H0.618133V44.698H2.29767V42.2737H2.83639V44.698H4.62685V41.8459ZM5.2131 38.677H0.000188916V36.4587C-0.00344691 36.2391 0.0454448 36.0218 0.142791 35.8249C0.235899 35.6377 0.36514 35.4708 0.523065 35.3337C0.680376 35.1903 0.863077 35.0774 1.06179 35.001C1.25337 34.9252 1.45788 34.8876 1.66388 34.8901C1.89665 34.8923 2.12723 34.9352 2.34521 35.0168C2.54946 35.1044 2.73301 35.234 2.88393 35.3971C3.03131 35.5609 3.13965 35.7559 3.20082 35.9675L5.2131 34.8584V35.6031L3.35927 36.7914V38.0273H5.2131V38.6928V38.677ZM2.77302 38.0273V36.4429C2.77849 36.2754 2.72208 36.1118 2.61457 35.9834C2.51618 35.8414 2.37851 35.7313 2.21845 35.6665C2.0554 35.5886 1.87619 35.5506 1.69557 35.5556C1.50788 35.5487 1.32179 35.5925 1.15685 35.6823C1.00067 35.7678 0.865381 35.8869 0.760736 36.0309C0.666718 36.1656 0.616886 36.3262 0.618133 36.4904V38.0749L2.77302 38.0273ZM5.2131 31.6894H0.000188916V31.024H5.2131V31.6894ZM5.2131 25.4783C5.22155 25.8173 5.15103 26.1536 5.00712 26.4607C4.85697 26.755 4.65271 27.0184 4.40502 27.2371C4.15374 27.4455 3.87008 27.6114 3.56525 27.7283C3.25741 27.8484 2.92915 27.9076 2.59872 27.9026C2.25595 27.9184 1.91299 27.8755 1.58466 27.7758C1.29583 27.6423 1.02875 27.466 0.792425 27.2529C0.55441 27.033 0.360778 26.7694 0.222015 26.4765C0.0760845 26.1752 0.000247719 25.8448 0.000188916 25.51C-0.00125634 25.1649 0.0745372 24.8238 0.222015 24.5118C0.375151 24.2286 0.579274 23.9761 0.824114 23.7671C1.07488 23.5496 1.36545 23.3828 1.67973 23.2759C1.98109 23.1508 2.30412 23.0862 2.63041 23.0858C2.97227 23.0845 3.31119 23.149 3.62863 23.2759C3.93101 23.395 4.20995 23.5667 4.45256 23.7829C4.69656 24.0012 4.89569 24.2649 5.03881 24.5593C5.17954 24.8674 5.2499 25.203 5.24479 25.5417L5.2131 25.4783ZM2.63041 27.2846C2.88954 27.2891 3.14731 27.2462 3.39096 27.1579C3.62464 27.0769 3.84393 26.9592 4.04059 26.8093C4.22711 26.6486 4.38281 26.4553 4.50009 26.2389C4.61015 26.012 4.66447 25.7621 4.65854 25.51C4.66212 25.2513 4.60228 24.9956 4.48425 24.7653C4.37175 24.5502 4.21518 24.3613 4.02475 24.2107C3.82617 24.0547 3.60059 23.9366 3.35927 23.8622C3.12283 23.7924 2.87685 23.7603 2.63041 23.7671C2.37171 23.7679 2.11486 23.8108 1.86987 23.8938C1.63381 23.9767 1.41398 24.1 1.22023 24.2583C1.02907 24.4144 0.872569 24.6087 0.760736 24.8287C0.653113 25.0508 0.598855 25.2949 0.602288 25.5417C0.592289 25.8011 0.652505 26.0584 0.77658 26.2864C0.885147 26.5041 1.04237 26.6938 1.23608 26.841C1.43212 26.9958 1.65136 27.1188 1.88571 27.2054C2.12641 27.282 2.37784 27.3194 2.63041 27.3163V27.2846ZM5.2131 19.9485H0.000188916V17.7302C-0.00153812 17.5159 0.0473191 17.3042 0.142791 17.1123C0.236872 16.9211 0.365842 16.7491 0.523065 16.6053C0.681006 16.4666 0.863805 16.359 1.06179 16.2884C1.25227 16.2072 1.45683 16.1641 1.66388 16.1616C1.89841 16.1615 2.13041 16.2101 2.34521 16.3042C2.55484 16.3819 2.74054 16.513 2.88393 16.6845C3.03753 16.8437 3.14678 17.0404 3.20082 17.2549L5.18141 16.0032V16.7479L3.32758 17.9204V19.2989H5.2131V19.9485ZM2.77302 19.2989V17.7144C2.77944 17.542 2.72315 17.3731 2.61457 17.2391C2.51202 17.1011 2.37557 16.9919 2.21845 16.9222C2.05294 16.8518 1.87539 16.8142 1.69557 16.8113C1.50866 16.8117 1.32435 16.855 1.15685 16.938C1.00067 17.0235 0.865381 17.1425 0.760736 17.2866C0.6664 17.4271 0.616695 17.5927 0.618133 17.7619V19.3464L2.77302 19.2989Z" fill="#201B18"/>
<path fill-rule="evenodd" clip-rule="evenodd" d="M25.209 36.1733L53.0323 63.9967H48.5166L25.209 40.7049V36.1733Z" fill="#201B18"/>
<path fill-rule="evenodd" clip-rule="evenodd" d="M39.3741 50.3386L26.9043 62.7926V63.9968H27.9817L40.4991 51.4636L39.3741 50.3386Z" fill="#201B18"/>
<path fill-rule="evenodd" clip-rule="evenodd" d="M38.0594 27.9184L27.3008 17.1757V16.0032H28.3624L39.1685 26.7934L38.0594 27.9184Z" fill="#201B18"/>
<path fill-rule="evenodd" clip-rule="evenodd" d="M28.7746 63.9968L40.769 51.9865L38.5032 49.7366L26.6514 61.6043V63.9968H28.7746Z" fill="#201B18"/>
<path fill-rule="evenodd" clip-rule="evenodd" d="M26.8565 63.9968L50.4335 40.4357L51.3366 39.5326L50.7821 38.978L49.8631 39.8653L26.2861 63.4264V63.9968H26.8565Z" fill="#201B18"/>
<path fill-rule="evenodd" clip-rule="evenodd" d="M27.8233 16.0032L51.0834 39.2632L51.3369 39.5484L50.7823 40.0871L27.2529 16.5577V16.0032H27.8233Z" fill="#201B18"/>
<path fill-rule="evenodd" clip-rule="evenodd" d="M28.7422 61.731L58.6095 31.8637L58.4352 31.6895L28.5996 61.5251L28.7422 61.731Z" fill="#201B18"/>
<path fill-rule="evenodd" clip-rule="evenodd" d="M60.131 49.0394L30.2637 19.1721L30.438 18.9978L60.2736 48.8334L60.131 49.0394Z" fill="#201B18"/>
<path fill-rule="evenodd" clip-rule="evenodd" d="M25.209 43.8265L53.0323 16.0032H48.5166L25.209 39.2949V43.8265Z" fill="#201B18"/>
<path d="M28.3784 16.0032H25.1777V63.9968H28.3784V16.0032Z" fill="#201B18"/>
<path d="M25.4154 8.00146H25.1777V71.9983H25.4154V8.00146Z" fill="#201B18"/>
<path d="M28.3783 0H28.1406V80H28.3783V0Z" fill="#201B18"/>
<path fill-rule="evenodd" clip-rule="evenodd" d="M66.7383 43.2243V27.4746H69.2259V34.066H71.0639L76.055 27.4746H78.8912L73.1079 35.1118L79.2239 43.2243H76.2293L71.0639 36.3477H69.2259V43.2243H66.7383ZM84.2942 43.2243V27.4746H86.7819V41.0218H95.2271V43.2243H84.2942ZM106.065 43.3352C104.68 43.3913 103.312 43.0147 102.151 42.2577C101.145 41.5555 100.382 40.5593 99.9647 39.4057C99.4934 38.1446 99.2623 36.8064 99.2833 35.4603V27.538H101.771V35.4603C101.712 36.8767 102.065 38.2799 102.785 39.5008C103.142 40.0317 103.634 40.4582 104.211 40.7366C104.787 41.015 105.427 41.1353 106.065 41.0852C106.706 41.1433 107.351 41.0267 107.931 40.7477C108.512 40.4688 109.006 40.0378 109.361 39.5008C110.077 38.2841 110.429 36.8872 110.375 35.4762V27.5538H112.878V35.4762C112.901 36.8459 112.659 38.2071 112.165 39.4849C111.728 40.6323 110.948 41.6171 109.931 42.3053C108.779 43.0397 107.43 43.4046 106.065 43.351V43.3352ZM118.947 43.2243V27.4746H121.434V34.066H123.272L128.216 27.4746H131.068L125.269 35.1118L131.512 43.2243H128.438L123.272 36.3477H121.434V43.2243H118.947ZM137.501 27.4746L142.254 40.1504L147.008 27.4746H149.654L143.458 43.2243H141.018L134.807 27.4746H137.501ZM154.296 43.2243V27.4746H156.768V43.2243H154.296ZM165.546 32.133V43.2243H163.058V27.4746H165.102L174.023 38.8511V27.4905H176.526V43.2243H174.292L165.483 32.133H165.546ZM187.364 27.5221H189.725L195.841 43.2718H193.306L191.721 38.9937H185.637L184.053 43.2718H181.407L187.57 27.5221H187.364ZM191.072 37.1557L188.553 30.1999L185.938 37.1082L191.072 37.1557Z" fill="#201B18"/>
<path fill-rule="evenodd" clip-rule="evenodd" d="M66.6904 52.5728L70.7467 62.5391L74.8029 52.5728H75.9596L71.2062 63.9176H70.1763L65.4229 52.5728H66.6904ZM82.2183 52.5728H83.1531L87.9065 63.9176H86.7182L85.308 60.3684H80.0792L78.6532 63.9176H77.4648L82.2183 52.5728ZM84.9119 59.4969L82.6778 53.872L80.4278 59.4811L84.9119 59.4969ZM91.535 63.9176V52.5728H92.6599V62.9352H99.2196V63.9176H91.535ZM110.549 62.9352V63.9176H102.991V52.5728H110.469V53.5551H104.132V57.6589H109.677V58.6254H104.132V62.9669L110.549 62.9352ZM115.825 54.6326V63.9176H114.7V52.5728H115.666L123.129 62.0796V52.5728H124.238V63.9017H123.209L115.872 54.6167L115.825 54.6326ZM137.152 53.5551H133.096V63.9176H131.987V53.5551H127.914V52.5728H137.136V53.5551H137.152ZM140.875 63.9176V52.5728H142V63.9176H140.875ZM148.006 54.6326V63.9176H146.881V52.5728H147.815L155.262 62.0796V52.5728H156.387V63.9017H155.278L147.99 54.6326H148.006ZM164.785 52.5728H165.736L170.489 63.9176H169.317L167.891 60.3684H162.709L161.283 63.9176H160.032L164.785 52.5728ZM167.495 59.4969L165.229 53.872L162.995 59.4811L167.495 59.4969Z" fill="#201B18"/>
</svg>
