<svg width="78" height="67" viewBox="0 0 78 67" fill="none" xmlns="http://www.w3.org/2000/svg">
<mask id="mask0_16_1250" style="mask-type:alpha" maskUnits="userSpaceOnUse" x="0" y="0" width="78" height="67">
<rect width="78" height="67" fill="#C4C4C4"/>
</mask>
<g mask="url(#mask0_16_1250)">
<path d="M44.6265 61.7952V42.759C44.6265 34.7269 45.51 27.739 47.2771 21.7952C49.0442 15.8514 51.7751 10.3896 55.4699 5.40964H73.0602C69.0442 10.5502 65.9116 15.8514 63.6627 21.3133C61.4137 26.6145 60.2892 31.5944 60.2892 36.253H72.8193V61.7952H44.6265ZM2.6988 61.7952V42.759C2.6988 34.8875 3.50201 27.9799 5.10843 22.0361C6.8755 15.9317 9.60643 10.3896 13.3012 5.40964H31.1325C27.1165 10.5502 23.9839 15.8514 21.7349 21.3133C19.4859 26.6145 18.3614 31.5944 18.3614 36.253H30.8916V61.7952H2.6988Z" fill="#DFD7D0"/>
</g>
</svg>
